<?xml version="1.0" encoding="UTF-8"?>
<!DOCTYPE svg PUBLIC "-//W3C//DTD SVG 1.1//EN" "http://www.w3.org/Graphics/SVG/1.1/DTD/svg11.dtd">
<svg xmlns="http://www.w3.org/2000/svg" version="1.1" width="512px" height="512px" style="shape-rendering:geometricPrecision; text-rendering:geometricPrecision; image-rendering:optimizeQuality; fill-rule:evenodd; clip-rule:evenodd" xmlns:xlink="http://www.w3.org/1999/xlink">
<g><path style="opacity:0.969" fill="#361452" d="M 251.5,-0.5 C 255.833,-0.5 260.167,-0.5 264.5,-0.5C 267.021,1.01922 269.521,2.68589 272,4.5C 273.861,6.88772 275.194,9.55438 276,12.5C 276.333,25.5 276.667,38.5 277,51.5C 285.91,62.5665 289.41,75.2331 287.5,89.5C 292.844,89.334 298.177,89.5006 303.5,90C 304,90.5 304.5,91 305,91.5C 305.333,97.8333 305.667,104.167 306,110.5C 332.166,127.155 345,151.155 344.5,182.5C 351.759,188.381 358.926,194.381 366,200.5C 366.167,218.842 366.667,237.176 367.5,255.5C 369.258,256.128 370.758,257.128 372,258.5C 372.171,263.864 372.671,269.198 373.5,274.5C 390.5,281 407.5,287.5 424.5,294C 425.333,294.833 426.167,295.667 427,296.5C 427.5,348.832 427.667,401.166 427.5,453.5C 432.43,453.197 437.263,453.531 442,454.5C 443.432,462.054 443.932,469.721 443.5,477.5C 447.571,477.234 451.571,477.567 455.5,478.5C 456.809,489.561 456.809,500.561 455.5,511.5C 322.167,511.5 188.833,511.5 55.5,511.5C 54.1913,500.561 54.1913,489.561 55.5,478.5C 59.4295,477.567 63.4295,477.234 67.5,477.5C 67.0679,469.721 67.5679,462.054 69,454.5C 73.7367,453.531 78.57,453.197 83.5,453.5C 83.3333,401.499 83.5,349.499 84,297.5C 84.5,296.333 85.3333,295.5 86.5,295C 104.833,288.167 123.167,281.333 141.5,274.5C 142.329,269.198 142.829,263.864 143,258.5C 144.242,257.128 145.742,256.128 147.5,255.5C 148.333,237.509 148.833,219.509 149,201.5C 156.667,195.167 164.333,188.833 172,182.5C 170.475,151.545 182.642,127.878 208.5,111.5C 209.202,104.809 209.868,98.1425 210.5,91.5C 216.463,90.5041 222.463,90.1707 228.5,90.5C 227.474,79.4368 228.974,68.7701 233,58.5C 235,55.8333 237,53.1667 239,50.5C 239.333,37.5 239.667,24.5 240,11.5C 242.019,5.64984 245.852,1.64984 251.5,-0.5 Z M 216.5,99.5 C 242.833,99.5 269.167,99.5 295.5,99.5C 295.5,102.833 295.5,106.167 295.5,109.5C 269.167,109.5 242.833,109.5 216.5,109.5C 216.5,106.167 216.5,102.833 216.5,99.5 Z M 176.5,189.5 C 229.501,189.333 282.501,189.5 335.5,190C 339.5,193.333 343.5,196.667 347.5,200C 286.5,200.667 225.5,200.667 164.5,200C 168.693,196.635 172.693,193.135 176.5,189.5 Z M 154.5,208.5 C 221.5,208.5 288.5,208.5 355.5,208.5C 355.5,223.167 355.5,237.833 355.5,252.5C 322.04,240.736 288.54,229.069 255,217.5C 221.46,229.069 187.96,240.736 154.5,252.5C 154.5,237.833 154.5,223.167 154.5,208.5 Z M 136.5,284.5 C 138.496,340.49 139.163,396.823 138.5,453.5C 122.833,453.5 107.167,453.5 91.5,453.5C 91.3333,403.166 91.5,352.832 92,302.5C 107.036,296.771 121.87,290.771 136.5,284.5 Z M 371.5,284.5 C 386.964,289.766 402.297,295.433 417.5,301.5C 418.5,351.829 418.833,402.162 418.5,452.5C 402.833,452.5 387.167,452.5 371.5,452.5C 371.5,396.5 371.5,340.5 371.5,284.5 Z M 147.5,287.5 C 150.833,287.5 154.167,287.5 157.5,287.5C 157.5,342.833 157.5,398.167 157.5,453.5C 154.167,453.5 150.833,453.5 147.5,453.5C 147.5,398.167 147.5,342.833 147.5,287.5 Z M 166.5,287.5 C 226.833,287.5 287.167,287.5 347.5,287.5C 347.5,342.833 347.5,398.167 347.5,453.5C 330.167,453.5 312.833,453.5 295.5,453.5C 295.667,437.83 295.5,422.163 295,406.5C 287.277,383.049 271.111,372.882 246.5,376C 230.333,380.167 220.167,390.333 216,406.5C 215.5,421.83 215.333,437.163 215.5,452.5C 199.167,452.5 182.833,452.5 166.5,452.5C 166.5,397.5 166.5,342.5 166.5,287.5 Z M 355.5,287.5 C 358.167,287.5 360.833,287.5 363.5,287.5C 363.5,342.833 363.5,398.167 363.5,453.5C 360.833,453.5 358.167,453.5 355.5,453.5C 355.5,398.167 355.5,342.833 355.5,287.5 Z"/></g>
<g><path style="opacity:0.999" fill="#f9b45b" d="M 252.5,7.5 C 261.754,6.42894 266.42,10.4289 266.5,19.5C 259.5,19.5 252.5,19.5 245.5,19.5C 245.796,14.2334 248.129,10.2334 252.5,7.5 Z"/></g>
<g><path style="opacity:1" fill="#98affa" d="M 245.5,27.5 C 252.5,27.5 259.5,27.5 266.5,27.5C 266.5,34.8333 266.5,42.1667 266.5,49.5C 259.5,49.5 252.5,49.5 245.5,49.5C 245.5,42.1667 245.5,34.8333 245.5,27.5 Z"/></g>
<g><path style="opacity:1" fill="#99b1fc" d="M 242.5,56.5 C 251.506,56.3336 260.506,56.5002 269.5,57C 276.876,66.9246 279.542,78.0913 277.5,90.5C 263.5,90.5 249.5,90.5 235.5,90.5C 235.334,83.4921 235.5,76.4921 236,69.5C 237.52,64.8216 239.687,60.4882 242.5,56.5 Z"/></g>
<g><path style="opacity:1" fill="#fab55b" d="M 212.5,117.5 C 219.863,117.169 227.197,117.503 234.5,118.5C 227.544,131.989 223.878,146.322 223.5,161.5C 209.167,161.5 194.833,161.5 180.5,161.5C 182.7,148.264 188.7,137.098 198.5,128C 203.35,124.637 208.017,121.137 212.5,117.5 Z"/></g>
<g><path style="opacity:1" fill="#f9b55b" d="M 243.5,117.5 C 251.174,117.334 258.841,117.5 266.5,118C 274.964,131.229 279.297,145.729 279.5,161.5C 263.5,161.5 247.5,161.5 231.5,161.5C 231.761,145.786 235.761,131.119 243.5,117.5 Z"/></g>
<g><path style="opacity:1" fill="#fab65b" d="M 330.5,158.5 C 316.539,160.483 302.206,161.15 287.5,160.5C 286.96,145.675 283.294,131.675 276.5,118.5C 283.811,117.335 291.144,117.169 298.5,118C 314.558,127.226 325.224,140.726 330.5,158.5 Z"/></g>
<g><path style="opacity:0.761" fill="#d39459" d="M 330.5,158.5 C 331.404,159.209 331.737,160.209 331.5,161.5C 316.657,161.829 301.99,161.496 287.5,160.5C 302.206,161.15 316.539,160.483 330.5,158.5 Z"/></g>
<g><path style="opacity:0.966" fill="#99b1fd" d="M 230.5,168.5 C 246.833,168.5 263.167,168.5 279.5,168.5C 279.5,172.833 279.5,177.167 279.5,181.5C 263.167,181.5 246.833,181.5 230.5,181.5C 230.5,177.167 230.5,172.833 230.5,168.5 Z"/></g>
<g><path style="opacity:1" fill="#95aaf5" d="M 179.5,168.5 C 194.167,168.5 208.833,168.5 223.5,168.5C 223.5,172.833 223.5,177.167 223.5,181.5C 208.833,181.5 194.167,181.5 179.5,181.5C 179.5,177.167 179.5,172.833 179.5,168.5 Z"/></g>
<g><path style="opacity:1" fill="#9ab2fe" d="M 288.5,169.5 C 303.167,169.5 317.833,169.5 332.5,169.5C 332.5,173.167 332.5,176.833 332.5,180.5C 317.833,180.5 303.167,180.5 288.5,180.5C 288.5,176.833 288.5,173.167 288.5,169.5 Z"/></g>
<g><path style="opacity:0.761" fill="#7c83ca" d="M 288.5,169.5 C 303.324,168.504 318.324,168.171 333.5,168.5C 333.5,172.833 333.5,177.167 333.5,181.5C 318.324,181.829 303.324,181.496 288.5,180.5C 303.167,180.5 317.833,180.5 332.5,180.5C 332.5,176.833 332.5,173.167 332.5,169.5C 317.833,169.5 303.167,169.5 288.5,169.5 Z"/></g>
<g><path style="opacity:0.976" fill="#99b1fd" d="M 254.5,225.5 C 290.514,238.228 326.514,251.061 362.5,264C 363.471,269.072 363.805,274.238 363.5,279.5C 291.5,279.5 219.5,279.5 147.5,279.5C 147.5,274.167 147.5,268.833 147.5,263.5C 183.533,251.602 219.199,238.935 254.5,225.5 Z"/></g>
<g><path style="opacity:0.949" fill="#361452" d="M 185.5,318.5 C 198.504,318.333 211.504,318.5 224.5,319C 225,319.5 225.5,320 226,320.5C 226.667,331.167 226.667,341.833 226,352.5C 225.5,353 225,353.5 224.5,354C 211.454,354.814 198.454,354.647 185.5,353.5C 184.808,352.975 184.308,352.308 184,351.5C 183.333,341.167 183.333,330.833 184,320.5C 184.717,319.956 185.217,319.289 185.5,318.5 Z"/></g>
<g><path style="opacity:0.956" fill="#361352" d="M 288.5,318.5 C 301.85,318.167 315.183,318.501 328.5,319.5C 329.644,330.453 329.811,341.453 329,352.5C 328.5,353 328,353.5 327.5,354C 314.454,354.814 301.454,354.647 288.5,353.5C 287.19,341.772 287.19,330.105 288.5,318.5 Z"/></g>
<g><path style="opacity:1" fill="#95abf6" d="M 192.5,326.5 C 201.167,326.5 209.833,326.5 218.5,326.5C 218.811,333.09 218.478,339.59 217.5,346C 209.173,346.5 200.84,346.666 192.5,346.5C 192.5,339.833 192.5,333.167 192.5,326.5 Z"/></g>
<g><path style="opacity:1" fill="#96acf8" d="M 295.5,326.5 C 304.167,326.5 312.833,326.5 321.5,326.5C 321.5,333.167 321.5,339.833 321.5,346.5C 312.833,346.5 304.167,346.5 295.5,346.5C 295.5,339.833 295.5,333.167 295.5,326.5 Z"/></g>
<g><path style="opacity:1" fill="#98b0fc" d="M 249.5,383.5 C 269.505,381.688 282.339,390.354 288,409.5C 288.5,424.496 288.667,439.496 288.5,454.5C 266.833,454.5 245.167,454.5 223.5,454.5C 223.333,439.496 223.5,424.496 224,409.5C 228.026,396.309 236.526,387.642 249.5,383.5 Z"/></g>
<g><path style="opacity:0.998" fill="#f5b15b" d="M 76.5,461.5 C 195.834,461.333 315.167,461.5 434.5,462C 435.833,467.333 435.833,472.667 434.5,478C 315.167,478.5 195.834,478.667 76.5,478.5C 76.5,472.833 76.5,467.167 76.5,461.5 Z"/></g>
<g><path style="opacity:1" fill="#fab65b" d="M 62.5,485.5 C 191.167,485.5 319.833,485.5 448.5,485.5C 448.5,491.5 448.5,497.5 448.5,503.5C 319.833,503.5 191.167,503.5 62.5,503.5C 62.5,497.5 62.5,491.5 62.5,485.5 Z"/></g>
</svg>
