<?xml version="1.0" encoding="UTF-8"?>
<!DOCTYPE svg PUBLIC "-//W3C//DTD SVG 1.1//EN" "http://www.w3.org/Graphics/SVG/1.1/DTD/svg11.dtd">
<svg xmlns="http://www.w3.org/2000/svg" version="1.1" width="512px" height="512px" style="shape-rendering:geometricPrecision; text-rendering:geometricPrecision; image-rendering:optimizeQuality; fill-rule:evenodd; clip-rule:evenodd" xmlns:xlink="http://www.w3.org/1999/xlink">
<g><path style="opacity:0.995" fill="#00a1ff" d="M 327.5,377.5 C 313.166,395.352 298.166,412.852 282.5,430C 276.712,435.723 270.379,440.723 263.5,445C 260.638,446.299 257.638,447.132 254.5,447.5C 249.63,446.398 245.297,444.232 241.5,441C 237.167,437.333 232.833,433.667 228.5,430C 212.834,412.852 197.834,395.352 183.5,377.5C 153.826,336.512 128.992,292.512 109,245.5C 79.0211,171.717 92.8544,107.551 150.5,53C 198.246,15.5869 251.246,5.9202 309.5,24C 371.751,48.5958 407.585,94.0958 417,160.5C 418.768,179.157 417.101,197.49 412,215.5C 397.682,259.465 378.016,300.799 353,339.5C 344.278,352.048 335.778,364.715 327.5,377.5 Z"/></g>
<g><path style="opacity:1" fill="#fefeff" d="M 203.5,119.5 C 217.597,118.035 230.264,121.535 241.5,130C 246.015,134.682 250.681,139.182 255.5,143.5C 262.433,136.062 270.1,129.562 278.5,124C 301.544,115.052 320.711,120.218 336,139.5C 344.915,156.355 344.582,173.022 335,189.5C 312.5,213.333 289.333,236.5 265.5,259C 257.429,262.759 249.762,262.093 242.5,257C 221.333,235.833 200.167,214.667 179,193.5C 168.732,180.414 165.732,165.748 170,149.5C 176.368,133.957 187.534,123.957 203.5,119.5 Z"/></g>
</svg>
